<svg width="105" height="105" viewBox="0 0 105 105" fill="none" xmlns="http://www.w3.org/2000/svg">
<path d="M52.5 0C25.2994 0 3.28223 22.0127 3.28223 49.2177C3.28223 61.1445 7.57041 72.5735 15.3816 81.5366V101.922C15.3816 104.669 18.7082 106.022 20.6329 104.097L31.1542 93.5753C63.51 109.143 101.718 85.7499 101.718 49.2175C101.718 22.0172 79.705 0 52.5 0V0ZM32.0252 87.1139C30.8283 86.4659 29.3479 86.6816 28.3852 87.6438L21.5338 94.4953V80.3631C21.5338 79.5943 21.2458 78.8534 20.7268 78.2861C13.4449 70.3311 9.43457 60.0077 9.43457 49.2175C9.43457 25.4711 28.7537 6.15193 52.5002 6.15193C76.2466 6.15193 95.5657 25.4711 95.5657 49.2175C95.5655 81.8934 60.4779 102.521 32.0252 87.1139Z" fill="#2C830E"/>
<path d="M52.4998 21.7174C42.3173 21.7174 34.033 30.0017 34.033 40.1843C34.033 41.8831 35.4103 43.2605 37.1091 43.2605C38.808 43.2605 40.1853 41.8831 40.1853 40.1843C40.1853 33.3939 45.7097 27.8695 52.5 27.8695C59.2904 27.8695 64.8148 33.3939 64.8148 40.1843C64.8148 46.9746 59.2902 52.499 52.4998 52.499C50.801 52.499 49.4237 53.8763 49.4237 55.5752V64.7932C49.4237 66.4921 50.801 67.8694 52.4998 67.8694C54.1987 67.8694 55.576 66.4921 55.576 64.7932V58.395C64.2996 56.926 70.9667 49.3191 70.9667 40.1843C70.9667 30.0017 62.6824 21.7174 52.4998 21.7174Z" fill="#2C830E"/>
<path d="M52.5 80.1635C54.1933 80.1635 55.5659 78.7908 55.5659 77.0975C55.5659 75.4043 54.1933 74.0316 52.5 74.0316C50.8067 74.0316 49.4341 75.4043 49.4341 77.0975C49.4341 78.7908 50.8067 80.1635 52.5 80.1635Z" fill="#2C830E"/>
</svg>
