<svg width="35" height="35" viewBox="0 0 35 35" fill="none" xmlns="http://www.w3.org/2000/svg">
<g clip-path="url(#clip0_21_217)">
<g clip-path="url(#clip1_21_217)">
<path d="M2.18687 2.38127C-0.562802 5.23815 -3.71113e-05 8.27294 -3.71113e-05 17.4925C-3.71113e-05 25.1488 -1.33551 32.824 5.65385 34.6309C7.83639 35.1923 27.1745 35.1923 29.3541 34.6279C32.2642 33.8769 34.6318 31.5159 34.9555 27.399C35.0007 26.8244 35.0007 8.17086 34.9541 7.58461C34.61 3.1994 31.9113 0.672105 28.3554 0.16023C27.5404 0.042105 27.3771 0.00710502 23.1958 -0.000186652C8.36416 0.00710502 5.11296 -0.65352 2.18687 2.38127Z" fill="url(#paint0_linear_21_217)"/>
<path d="M17.4924 4.57741C12.1986 4.57741 7.1716 4.10637 5.25149 9.03554C4.45838 11.0714 4.57355 13.7153 4.57355 17.5012C4.57355 20.8232 4.46712 23.9455 5.25149 25.9653C7.16723 30.8974 12.235 30.4249 17.4894 30.4249C22.5587 30.4249 27.7854 30.9528 29.7288 25.9653C30.5234 23.9091 30.4068 21.3045 30.4068 17.5012C30.4068 12.4524 30.6852 9.19304 28.2374 6.74595C25.7589 4.26679 22.4071 4.57741 17.4865 4.57741H17.4924ZM16.3347 6.90637C27.3772 6.88887 28.7826 5.66096 28.007 22.7191C27.7315 28.7522 23.1389 28.0901 17.4938 28.0901C7.20076 28.0901 6.9048 27.7955 6.9048 17.4953C6.9048 7.07554 7.72124 6.91221 16.3347 6.90346V6.90637ZM24.3884 9.05158C23.5326 9.05158 22.8386 9.74575 22.8386 10.6018C22.8386 11.4578 23.5326 12.152 24.3884 12.152C25.2442 12.152 25.9382 11.4578 25.9382 10.6018C25.9382 9.74575 25.2442 9.05158 24.3884 9.05158ZM17.4924 10.8643C13.8285 10.8643 10.8587 13.8364 10.8587 17.5012C10.8587 21.166 13.8285 24.1366 17.4924 24.1366C21.1562 24.1366 24.1245 21.166 24.1245 17.5012C24.1245 13.8364 21.1562 10.8643 17.4924 10.8643ZM17.4924 13.1932C23.1856 13.1932 23.1929 21.8091 17.4924 21.8091C11.8006 21.8091 11.7918 13.1932 17.4924 13.1932Z" fill="white"/>
</g>
</g>
<defs>
<linearGradient id="paint0_linear_21_217" x1="2.25397" y1="32.7643" x2="34.7815" y2="4.61973" gradientUnits="userSpaceOnUse">
<stop stop-color="#FFDD55"/>
<stop offset="0.5" stop-color="#FF543E"/>
<stop offset="1" stop-color="#C837AB"/>
</linearGradient>
<clipPath id="clip0_21_217">
<rect width="34.9905" height="35" rx="17.4953" fill="white"/>
</clipPath>
<clipPath id="clip1_21_217">
<rect width="34.9905" height="35" fill="white"/>
</clipPath>
</defs>
</svg>
