<svg width="41" height="41" viewBox="0 0 41 41" fill="none" xmlns="http://www.w3.org/2000/svg">
<circle cx="20.5" cy="20.5" r="20.5" fill="#19191A"/>
<rect x="8.60995" y="8.6102" width="23.78" height="23.78" stroke="#FF1818" stroke-width="0.82"/>
<path d="M13.1592 21.7664C13.2078 21.8011 13.252 21.8349 13.2919 21.8679C13.3336 21.9008 13.3804 21.9321 13.4325 21.9616C13.4845 21.9893 13.5383 22.0136 13.5938 22.0344C13.7153 22.083 13.8515 22.1073 14.0024 22.1073C14.2557 22.1073 14.4301 22.0457 14.5255 21.9225C14.6071 21.8167 14.6479 21.7126 14.6479 21.6102C14.6479 21.5061 14.6374 21.4246 14.6166 21.3656C14.5767 21.2632 14.4969 21.1669 14.3772 21.0767C14.3269 21.042 14.267 21.0047 14.1976 20.9648L13.7708 20.754C13.6112 20.6672 13.4897 20.5831 13.4064 20.5015C13.3232 20.42 13.2607 20.3445 13.2191 20.2751C13.1271 20.1207 13.0811 19.9203 13.0811 19.6739C13.0811 19.4275 13.1705 19.2133 13.3492 19.0311C13.5279 18.8489 13.7604 18.7578 14.0467 18.7578C14.2288 18.7578 14.3919 18.7813 14.5359 18.8281C14.6817 18.8749 14.7971 18.9313 14.8821 18.9973L14.7832 19.3564C14.5767 19.1968 14.3425 19.117 14.0805 19.117C13.9157 19.117 13.7864 19.1716 13.6927 19.2809C13.6008 19.3902 13.5548 19.5308 13.5548 19.7025C13.5548 19.7806 13.5678 19.8518 13.5938 19.916C13.6372 20.0305 13.7274 20.1328 13.8645 20.2231C13.9183 20.2612 13.9929 20.3011 14.0883 20.3428L14.4969 20.551C14.5698 20.5909 14.634 20.6308 14.6895 20.6707C14.7467 20.7089 14.8031 20.7557 14.8587 20.8112C15.0339 20.9865 15.1215 21.2129 15.1215 21.4905C15.1215 21.7664 15.027 21.9989 14.8378 22.188C14.6487 22.3771 14.4023 22.4717 14.0987 22.4717C13.7656 22.4717 13.4915 22.4127 13.2763 22.2947C13.1601 22.2322 13.0681 22.1776 13.0004 22.1307L13.1592 21.7664ZM15.5223 18.8047H18.3044V19.1664H17.1489V22.4248H16.6778V19.1664H15.5223V18.8047ZM20.8835 21.3734H19.4573L19.067 22.4248H18.6297L19.9883 18.8047H20.3786L21.7372 22.4248H21.2739L20.8835 21.3734ZM20.7482 21.009L20.1704 19.4475L19.5901 21.009H20.7482ZM22.0391 20.6134C22.0391 20.2473 22.1145 19.9246 22.2655 19.6453C22.4147 19.366 22.6316 19.1482 22.9161 18.9921C23.2007 18.8359 23.5338 18.7578 23.9155 18.7578C24.2434 18.7578 24.482 18.7847 24.6312 18.8385C24.7804 18.8906 24.8897 18.9357 24.9591 18.9738C25.0302 19.0103 25.1213 19.0641 25.2324 19.1352L25.0502 19.4813C24.6789 19.2419 24.3041 19.1222 23.9259 19.1222C23.7142 19.1222 23.5199 19.1638 23.3429 19.2471C23.0046 19.405 22.7686 19.6739 22.635 20.0539C22.5708 20.2326 22.5388 20.4087 22.5388 20.5822C22.5388 21.0975 22.6984 21.5035 23.0176 21.8002C23.2293 22.0049 23.4939 22.1073 23.8114 22.1073H23.8426C24.1237 22.1073 24.4091 22.0422 24.6989 21.9121V21.0559H23.9259V20.6941L25.1699 20.6915L25.1673 22.0969C24.7978 22.3467 24.3466 22.4717 23.814 22.4717C23.2813 22.4717 22.8519 22.3008 22.5257 21.959C22.2013 21.6172 22.0391 21.1686 22.0391 20.6134ZM26.5883 20.7488V22.0604H28.1863V22.4248H26.1172V18.8047H28.1863V19.1664H26.5883V20.3844H27.6762V20.7488H26.5883Z" fill="white"/>
<path d="M13.1592 14.7966C13.2078 14.8313 13.252 14.8652 13.2919 14.8981C13.3336 14.9311 13.3804 14.9623 13.4325 14.9918C13.4845 15.0196 13.5383 15.0439 13.5938 15.0647C13.7153 15.1133 13.8515 15.1376 14.0024 15.1376C14.2557 15.1376 14.4301 15.076 14.5255 14.9528C14.6071 14.847 14.6479 14.7428 14.6479 14.6405C14.6479 14.5364 14.6374 14.4548 14.6166 14.3958C14.5767 14.2935 14.4969 14.1972 14.3772 14.107C14.3269 14.0723 14.267 14.035 14.1976 13.9951L13.7708 13.7842C13.6112 13.6975 13.4897 13.6133 13.4064 13.5318C13.3232 13.4503 13.2607 13.3748 13.2191 13.3054C13.1271 13.151 13.0811 12.9506 13.0811 12.7042C13.0811 12.4578 13.1705 12.2435 13.3492 12.0614C13.5279 11.8792 13.7604 11.7881 14.0467 11.7881C14.2288 11.7881 14.3919 11.8115 14.5359 11.8584C14.6817 11.9052 14.7971 11.9616 14.8821 12.0275L14.7832 12.3867C14.5767 12.2271 14.3425 12.1473 14.0805 12.1473C13.9157 12.1473 13.7864 12.2019 13.6927 12.3112C13.6008 12.4205 13.5548 12.5611 13.5548 12.7328C13.5548 12.8109 13.5678 12.882 13.5938 12.9462C13.6372 13.0607 13.7274 13.1631 13.8645 13.2533C13.9183 13.2915 13.9929 13.3314 14.0883 13.373L14.4969 13.5813C14.5698 13.6212 14.634 13.6611 14.6895 13.701C14.7467 13.7391 14.8031 13.786 14.8587 13.8415C15.0339 14.0167 15.1215 14.2432 15.1215 14.5208C15.1215 14.7966 15.027 15.0291 14.8378 15.2182C14.6487 15.4074 14.4023 15.5019 14.0987 15.5019C13.7656 15.5019 13.4915 15.4429 13.2763 15.325C13.1601 15.2625 13.0681 15.2078 13.0004 15.161L13.1592 14.7966ZM15.5223 11.8349H18.3044V12.1967H17.1489V15.4551H16.6778V12.1967H15.5223V11.8349ZM20.8835 14.4037H19.4573L19.067 15.4551H18.6297L19.9883 11.8349H20.3786L21.7372 15.4551H21.2739L20.8835 14.4037ZM20.7482 14.0393L20.1704 12.4778L19.5901 14.0393H20.7482ZM22.0391 13.6437C22.0391 13.2776 22.1145 12.9549 22.2655 12.6756C22.4147 12.3962 22.6316 12.1785 22.9161 12.0223C23.2007 11.8662 23.5338 11.7881 23.9155 11.7881C24.2434 11.7881 24.482 11.815 24.6312 11.8688C24.7804 11.9208 24.8897 11.9659 24.9591 12.0041C25.0302 12.0405 25.1213 12.0943 25.2324 12.1655L25.0502 12.5116C24.6789 12.2722 24.3041 12.1525 23.9259 12.1525C23.7142 12.1525 23.5199 12.1941 23.3429 12.2774C23.0046 12.4353 22.7686 12.7042 22.635 13.0842C22.5708 13.2629 22.5388 13.439 22.5388 13.6125C22.5388 14.1278 22.6984 14.5338 23.0176 14.8305C23.2293 15.0352 23.4939 15.1376 23.8114 15.1376H23.8426C24.1237 15.1376 24.4091 15.0725 24.6989 14.9424V14.0861H23.9259V13.7244L25.1699 13.7218L25.1673 15.1272C24.7978 15.377 24.3466 15.5019 23.814 15.5019C23.2813 15.5019 22.8519 15.331 22.5257 14.9892C22.2013 14.6474 22.0391 14.1989 22.0391 13.6437ZM26.5883 13.779V15.0907H28.1863V15.4551H26.1172V11.8349H28.1863V12.1967H26.5883V13.4147H27.6762V13.779H26.5883Z" fill="white"/>
<path d="M13.1592 28.7366C13.2078 28.7713 13.252 28.8051 13.2919 28.8381C13.3336 28.871 13.3804 28.9023 13.4325 28.9318C13.4845 28.9595 13.5383 28.9838 13.5938 29.0046C13.7153 29.0532 13.8515 29.0775 14.0024 29.0775C14.2557 29.0775 14.4301 29.0159 14.5255 28.8927C14.6071 28.7869 14.6479 28.6828 14.6479 28.5804C14.6479 28.4763 14.6374 28.3948 14.6166 28.3358C14.5767 28.2334 14.4969 28.1371 14.3772 28.0469C14.3269 28.0122 14.267 27.9749 14.1976 27.935L13.7708 27.7242C13.6112 27.6374 13.4897 27.5533 13.4064 27.4717C13.3232 27.3902 13.2607 27.3147 13.2191 27.2453C13.1271 27.0909 13.0811 26.8905 13.0811 26.6441C13.0811 26.3978 13.1705 26.1835 13.3492 26.0013C13.5279 25.8191 13.7604 25.728 14.0467 25.728C14.2288 25.728 14.3919 25.7515 14.5359 25.7983C14.6817 25.8452 14.7971 25.9015 14.8821 25.9675L14.7832 26.3266C14.5767 26.167 14.3425 26.0872 14.0805 26.0872C13.9157 26.0872 13.7864 26.1418 13.6927 26.2512C13.6008 26.3605 13.5548 26.501 13.5548 26.6728C13.5548 26.7508 13.5678 26.822 13.5938 26.8862C13.6372 27.0007 13.7274 27.1031 13.8645 27.1933C13.9183 27.2314 13.9929 27.2713 14.0883 27.313L14.4969 27.5212C14.5698 27.5611 14.634 27.601 14.6895 27.6409C14.7467 27.6791 14.8031 27.7259 14.8587 27.7814C15.0339 27.9567 15.1215 28.1831 15.1215 28.4607C15.1215 28.7366 15.027 28.9691 14.8378 29.1582C14.6487 29.3473 14.4023 29.4419 14.0987 29.4419C13.7656 29.4419 13.4915 29.3829 13.2763 29.2649C13.1601 29.2024 13.0681 29.1478 13.0004 29.1009L13.1592 28.7366ZM15.5223 25.7749H18.3044V26.1366H17.1489V29.395H16.6778V26.1366H15.5223V25.7749ZM20.8835 28.3436H19.4573L19.067 29.395H18.6297L19.9883 25.7749H20.3786L21.7372 29.395H21.2739L20.8835 28.3436ZM20.7482 27.9792L20.1704 26.4177L19.5901 27.9792H20.7482ZM22.0391 27.5837C22.0391 27.2176 22.1145 26.8948 22.2655 26.6155C22.4147 26.3362 22.6316 26.1184 22.9161 25.9623C23.2007 25.8061 23.5338 25.728 23.9155 25.728C24.2434 25.728 24.482 25.7549 24.6312 25.8087C24.7804 25.8608 24.8897 25.9059 24.9591 25.9441C25.0302 25.9805 25.1213 26.0343 25.2324 26.1054L25.0502 26.4515C24.6789 26.2121 24.3041 26.0924 23.9259 26.0924C23.7142 26.0924 23.5199 26.134 23.3429 26.2173C23.0046 26.3752 22.7686 26.6441 22.635 27.0241C22.5708 27.2028 22.5388 27.3789 22.5388 27.5524C22.5388 28.0677 22.6984 28.4737 23.0176 28.7704C23.2293 28.9751 23.4939 29.0775 23.8114 29.0775H23.8426C24.1237 29.0775 24.4091 29.0124 24.6989 28.8823V28.0261H23.9259V27.6643L25.1699 27.6617L25.1673 29.0671C24.7978 29.3169 24.3466 29.4419 23.814 29.4419C23.2813 29.4419 22.8519 29.271 22.5257 28.9292C22.2013 28.5874 22.0391 28.1389 22.0391 27.5837ZM26.5883 27.719V29.0307H28.1863V29.395H26.1172V25.7749H28.1863V26.1366H26.5883V27.3546H27.6762V27.719H26.5883Z" fill="white"/>
</svg>
