<svg width="30" height="30" viewBox="0 0 30 30" fill="none" xmlns="http://www.w3.org/2000/svg">
<g clip-path="url(#clip0_67_290)">
<path d="M15 30C23.2843 30 30 23.2843 30 15C30 6.71573 23.2843 0 15 0C6.71573 0 0 6.71573 0 15C0 23.2843 6.71573 30 15 30Z" fill="#039BE5"/>
<path d="M6.86371 14.6757L21.3262 9.0995C21.9975 8.857 22.5837 9.26325 22.3662 10.2782L22.3675 10.277L19.905 21.8782C19.7225 22.7007 19.2337 22.9007 18.55 22.5132L14.8 19.7495L12.9912 21.492C12.7912 21.692 12.6225 21.8607 12.235 21.8607L12.5012 18.0445L19.4512 11.7657C19.7537 11.4995 19.3837 11.3495 18.985 11.6145L10.3962 17.022L6.69371 15.867C5.88996 15.612 5.87246 15.0632 6.86371 14.6757Z" fill="white"/>
</g>
<defs>
<clipPath id="clip0_67_290">
<rect width="30" height="30" fill="white"/>
</clipPath>
</defs>
</svg>
