<svg width="22" height="22" viewBox="0 0 22 22" fill="none" xmlns="http://www.w3.org/2000/svg">
<g clip-path="url(#clip0_21_198)">
<path d="M10.8402 10.5975C12.2957 10.5975 13.556 10.0753 14.5858 9.04505C15.6156 8.01498 16.1376 6.75463 16.1376 5.29856C16.1376 3.843 15.6156 2.58248 14.5856 1.55207C13.5557 0.522169 12.2955 0 10.8402 0C9.38451 0 8.1245 0.522169 7.09471 1.55224C6.06492 2.58231 5.54272 3.84283 5.54272 5.29856C5.54272 6.75463 6.06492 8.01515 7.09488 9.04522C8.12483 10.0751 9.38501 10.5975 10.8402 10.5975Z" fill="white"/>
<path d="M20.1098 16.917C20.0801 16.4883 20.0201 16.0207 19.9316 15.5269C19.8424 15.0294 19.7274 14.5591 19.5898 14.1292C19.4477 13.6849 19.2544 13.2462 19.0154 12.8257C18.7674 12.3893 18.4761 12.0093 18.1493 11.6966C17.8074 11.3695 17.389 11.1065 16.905 10.9146C16.4228 10.7238 15.8883 10.6271 15.3166 10.6271C15.0921 10.6271 14.875 10.7193 14.4556 10.9924C14.1976 11.1607 13.8957 11.3554 13.5588 11.5708C13.2706 11.7544 12.8803 11.9264 12.3982 12.0822C11.9279 12.2344 11.4503 12.3116 10.979 12.3116C10.5076 12.3116 10.0302 12.2344 9.5594 12.0822C9.07782 11.9266 8.68751 11.7545 8.39974 11.5709C8.06598 11.3576 7.76394 11.1629 7.50201 10.9922C7.08318 10.7191 6.86587 10.627 6.64136 10.627C6.0695 10.627 5.53522 10.7238 5.05313 10.9148C4.56953 11.1063 4.15087 11.3693 3.80872 11.6968C3.48202 12.0097 3.19055 12.3895 2.94288 12.8257C2.7041 13.2462 2.51079 13.6848 2.3685 14.1294C2.23107 14.5593 2.11612 15.0294 2.02685 15.5269C1.93842 16.02 1.87835 16.4878 1.84865 16.9175C1.81945 17.3384 1.80469 17.7753 1.80469 18.2166C1.80469 19.365 2.16965 20.2947 2.88935 20.9804C3.60015 21.657 4.54067 22.0002 5.68439 22.0002H16.2746C17.4183 22.0002 18.3585 21.6571 19.0695 20.9804C19.7893 20.2952 20.1543 19.3654 20.1543 18.2164C20.1541 17.7732 20.1392 17.3359 20.1098 16.917Z" fill="white"/>
</g>
<defs>
<clipPath id="clip0_21_198">
<rect width="21.9939" height="22" fill="white"/>
</clipPath>
</defs>
</svg>
