<svg width="35" height="35" viewBox="0 0 35 35" fill="none" xmlns="http://www.w3.org/2000/svg">
<g clip-path="url(#clip0_21_257)">
<g clip-path="url(#clip1_21_257)">
<path d="M17.4996 0H17.4909C7.84444 0 0 7.84875 0 17.5C0 21.3281 1.23342 24.8762 3.33066 27.7572L1.15031 34.2584L7.87506 32.1081C10.6415 33.9412 13.9415 35 17.4996 35C27.1461 35 34.9905 27.1491 34.9905 17.5C34.9905 7.85094 27.1461 0 17.4996 0Z" fill="#4CAF50"/>
<path d="M27.6797 24.7123C27.2576 25.9045 25.5825 26.8932 24.2463 27.182C23.3321 27.3766 22.1381 27.532 18.1186 25.8651C12.9771 23.7345 9.66615 18.5085 9.4081 18.1695C9.16098 17.8304 7.33054 15.4023 7.33054 12.891C7.33054 10.3798 8.6055 9.15696 9.11943 8.63196C9.5415 8.20103 10.2391 8.00415 10.9083 8.00415C11.1248 8.00415 11.3195 8.01509 11.4944 8.02384C12.0083 8.04571 12.2664 8.07634 12.6054 8.8879C13.0274 9.90509 14.0553 12.4163 14.1777 12.6745C14.3024 12.9326 14.4271 13.2826 14.2521 13.6217C14.0881 13.9717 13.9437 14.127 13.6857 14.4245C13.4276 14.722 13.1827 14.9495 12.9246 15.2688C12.6885 15.5466 12.4217 15.8442 12.7191 16.3582C13.0165 16.8613 14.0443 18.5391 15.5577 19.8866C17.5106 21.6257 19.0939 22.1813 19.6603 22.4176C20.0824 22.5926 20.5854 22.551 20.8937 22.2229C21.2852 21.8007 21.7685 21.1007 22.2606 20.4116C22.6105 19.9173 23.0522 19.856 23.5158 20.031C23.9882 20.1951 26.4879 21.431 27.0018 21.687C27.5157 21.9451 27.8547 22.0676 27.9793 22.2841C28.1018 22.5007 28.1018 23.5179 27.6797 24.7123Z" fill="#FAFAFA"/>
</g>
</g>
<defs>
<clipPath id="clip0_21_257">
<rect width="34.9905" height="35" fill="white"/>
</clipPath>
<clipPath id="clip1_21_257">
<rect width="34.9905" height="35" fill="white"/>
</clipPath>
</defs>
</svg>
