<svg width="35" height="35" viewBox="0 0 35 35" fill="none" xmlns="http://www.w3.org/2000/svg">
<g clip-path="url(#clip0_21_221)">
<g clip-path="url(#clip1_21_221)">
<path d="M17.4953 35C27.1576 35 34.9905 27.165 34.9905 17.5C34.9905 7.83502 27.1576 0 17.4953 0C7.8329 0 0 7.83502 0 17.5C0 27.165 7.8329 35 17.4953 35Z" fill="#4D76A1"/>
<path fill-rule="evenodd" clip-rule="evenodd" d="M16.8344 25.1753H18.2076C18.2076 25.1753 18.6224 25.1298 18.8341 24.9014C19.029 24.6918 19.0228 24.2981 19.0228 24.2981C19.0228 24.2981 18.996 22.4551 19.8511 22.1837C20.6941 21.9163 21.7766 23.9649 22.924 24.7526C23.7916 25.3487 24.4509 25.218 24.4509 25.218L27.5188 25.1753C27.5188 25.1753 29.1236 25.0764 28.3627 23.8142C28.3003 23.711 27.9195 22.8806 26.0817 21.1742C24.158 19.3882 24.4157 19.6771 26.7328 16.5878C28.1441 14.7064 28.7082 13.5578 28.532 13.0659C28.3639 12.5973 27.326 12.7212 27.326 12.7212L23.8717 12.7427C23.8717 12.7427 23.6157 12.7077 23.4258 12.8213C23.2402 12.9327 23.1208 13.1922 23.1208 13.1922C23.1208 13.1922 22.5741 14.6481 21.8449 15.8862C20.3068 18.4989 19.6918 18.6367 19.4404 18.4745C18.8556 18.0964 19.0016 16.9556 19.0016 16.1452C19.0016 13.6133 19.3855 12.5577 18.254 12.2844C17.8785 12.1936 17.6022 12.1337 16.642 12.1241C15.4095 12.1113 14.3663 12.1278 13.7756 12.4173C13.3826 12.6098 13.0795 13.0387 13.2641 13.0634C13.4924 13.0939 14.0095 13.2028 14.2836 13.5762C14.6376 14.0579 14.6251 15.1397 14.6251 15.1397C14.6251 15.1397 14.8285 18.1201 14.1501 18.4904C13.6845 18.7444 13.0458 18.2259 11.6745 15.8557C10.9719 14.6415 10.4414 13.2995 10.4414 13.2995C10.4414 13.2995 10.3391 13.0487 10.1567 12.9146C9.93523 12.752 9.62585 12.7003 9.62585 12.7003L6.34342 12.7218C6.34342 12.7218 5.85067 12.7355 5.66978 12.9498C5.50886 13.1404 5.657 13.5347 5.657 13.5347C5.657 13.5347 8.2268 19.5486 11.1365 22.5792C13.8046 25.3578 16.8344 25.1753 16.8344 25.1753Z" fill="white"/>
</g>
</g>
<defs>
<clipPath id="clip0_21_221">
<rect width="34.9905" height="35" fill="white"/>
</clipPath>
<clipPath id="clip1_21_221">
<rect width="34.9905" height="35" fill="white"/>
</clipPath>
</defs>
</svg>
